<?xml version="1.0" encoding="UTF-8"?>
<svg id="Layer_2" data-name="Layer 2" xmlns="http://www.w3.org/2000/svg" width="132" height="132" xmlns:xlink="http://www.w3.org/1999/xlink" viewBox="0 0 132 132">
  <defs>
    <style>
      .cls-1 {
        fill: #662d91;
      }

      .cls-2 {
        fill: url(#radial-gradient-8);
      }

      .cls-2, .cls-3, .cls-4, .cls-5 {
        opacity: .15;
      }

      .cls-3 {
        fill: url(#radial-gradient-9);
      }

      .cls-6 {
        fill: url(#radial-gradient-5);
      }

      .cls-6, .cls-7, .cls-8 {
        opacity: .25;
      }

      .cls-7 {
        fill: url(#radial-gradient-6);
      }

      .cls-8 {
        fill: url(#radial-gradient-2);
      }

      .cls-9 {
        fill: url(#radial-gradient-7);
      }

      .cls-9, .cls-10, .cls-11, .cls-12, .cls-13 {
        opacity: .5;
      }

      .cls-10 {
        fill: url(#radial-gradient-3);
      }

      .cls-14 {
        fill: url(#radial-gradient-4);
      }

      .cls-15 {
        fill: #e6e6e6;
      }

      .cls-16 {
        fill: url(#radial-gradient);
        opacity: .75;
      }

      .cls-4 {
        fill: url(#radial-gradient-10);
      }

      .cls-5 {
        fill: url(#radial-gradient-11);
      }

      .cls-11 {
        fill: url(#radial-gradient-14);
      }

      .cls-12 {
        fill: url(#radial-gradient-12);
      }

      .cls-13 {
        fill: url(#radial-gradient-13);
      }

      .cls-17 {
        fill: #59166e;
      }

      .cls-18 {
        fill: #93278f;
      }
    </style>
    <radialGradient id="radial-gradient" cx="68" cy="68" fx="68" fy="68" r="64" gradientUnits="userSpaceOnUse">
      <stop offset=".75" stop-color="#000" stop-opacity=".5"/>
      <stop offset="1" stop-color="#000" stop-opacity="0"/>
    </radialGradient>
    <radialGradient id="radial-gradient-2" cx="26.16" cy="23.24" fx="14.28" fy="23.24" r="12.73" gradientTransform="translate(98.55 -93.09) rotate(42.9) scale(1 5.79)" gradientUnits="userSpaceOnUse">
      <stop offset=".33" stop-color="#fff" stop-opacity=".5"/>
      <stop offset=".63" stop-color="#fff" stop-opacity="0"/>
    </radialGradient>
    <radialGradient id="radial-gradient-3" cx="102.49" cy="104.1" fx="102.49" fy="104.1" r="18.14" gradientTransform="translate(-87.27 504.26) rotate(-141.25) scale(1 4.14)" gradientUnits="userSpaceOnUse">
      <stop offset=".33" stop-color="#000" stop-opacity=".5"/>
      <stop offset=".63" stop-color="#000" stop-opacity="0"/>
    </radialGradient>
    <radialGradient id="radial-gradient-4" cx="29.43" cy="29.36" fx="29.43" fy="29.36" r="8.25" gradientTransform="translate(54.08 -36.91) rotate(45) scale(1 2.19)" gradientUnits="userSpaceOnUse">
      <stop offset=".25" stop-color="#fff" stop-opacity=".5"/>
      <stop offset=".9" stop-color="#fff" stop-opacity="0"/>
    </radialGradient>
    <radialGradient id="radial-gradient-5" cx="51.66" cy="51.18" fx="51.66" fy="51.18" r="18.78" gradientTransform="translate(-27.25 203.15) rotate(-135) scale(1 3.19)" gradientUnits="userSpaceOnUse">
      <stop offset=".25" stop-color="#000" stop-opacity=".5"/>
      <stop offset=".9" stop-color="#000" stop-opacity="0"/>
    </radialGradient>
    <radialGradient id="radial-gradient-6" cx="101.61" cy="101.94" fx="101.61" fy="101.94" r="16.08" gradientTransform="translate(24.86 318.87) rotate(-134.31) scale(1 2.03)" gradientUnits="userSpaceOnUse">
      <stop offset=".14" stop-color="#000" stop-opacity=".5"/>
      <stop offset=".89" stop-color="#000" stop-opacity="0"/>
    </radialGradient>
    <radialGradient id="radial-gradient-7" cx="81.61" cy="81.73" fx="81.61" fy="81.73" r="15.66" gradientTransform="translate(49.69 229.06) rotate(-135) scale(1 1.55)" gradientUnits="userSpaceOnUse">
      <stop offset=".25" stop-color="#fff" stop-opacity=".5"/>
      <stop offset=".38" stop-color="#fff" stop-opacity=".42"/>
      <stop offset=".66" stop-color="#fff" stop-opacity=".2"/>
      <stop offset=".9" stop-color="#fff" stop-opacity="0"/>
    </radialGradient>
    <radialGradient id="radial-gradient-8" cx="77.05" cy="52.58" fx="77.05" fy="52.58" r="17.2" gradientTransform="translate(225.87 92.43) rotate(135) scale(1 2.54)" gradientUnits="userSpaceOnUse">
      <stop offset=".5" stop-color="#000" stop-opacity=".5"/>
      <stop offset=".9" stop-color="#000" stop-opacity="0"/>
    </radialGradient>
    <radialGradient id="radial-gradient-9" cx="137.23" cy="-7.42" fx="137.23" fy="-7.42" r="17.2" gradientTransform="translate(-32.95 185.77) rotate(-45) scale(1 2.54)" xlink:href="#radial-gradient-8"/>
    <radialGradient id="radial-gradient-10" cx="100.02" cy="28.21" fx="100.02" fy="28.21" r="11.59" gradientTransform="translate(239.91 26.64) rotate(135) scale(1 3.47)" gradientUnits="userSpaceOnUse">
      <stop offset=".34" stop-color="#fff" stop-opacity=".5"/>
      <stop offset=".48" stop-color="#fff" stop-opacity=".42"/>
      <stop offset=".76" stop-color="#fff" stop-opacity=".2"/>
      <stop offset="1" stop-color="#fff" stop-opacity="0"/>
    </radialGradient>
    <radialGradient id="radial-gradient-11" cx="35.75" cy="92.48" fx="35.75" fy="92.48" gradientTransform="translate(-223.76 -101.92) rotate(-45) scale(1 3.47)" xlink:href="#radial-gradient-10"/>
    <radialGradient id="radial-gradient-12" cx="64.12" cy="64.12" fx="64.12" fy="64.12" r="10.52" gradientTransform="matrix(1,0,0,1,0,0)" xlink:href="#radial-gradient-8"/>
    <radialGradient id="radial-gradient-13" cx="60.99" cy="60.52" fx="60.99" fy="60.52" r="3.37" gradientTransform="translate(112.17 -85.86) rotate(42.43) scale(1 2.36)" gradientUnits="userSpaceOnUse">
      <stop offset=".19" stop-color="#fff" stop-opacity=".5"/>
      <stop offset=".77" stop-color="#fff" stop-opacity="0"/>
    </radialGradient>
    <radialGradient id="radial-gradient-14" cx="65.93" cy="66.11" fx="65.93" fy="66.11" r="5.16" gradientTransform="translate(4.41 220.86) rotate(-135) scale(1 2.31)" gradientUnits="userSpaceOnUse">
      <stop offset=".25" stop-color="#000" stop-opacity=".5"/>
      <stop offset=".66" stop-color="#000" stop-opacity="0"/>
    </radialGradient>
  </defs>
  <g id="rotate">
    <circle id="drop-shadow" class="cls-16" cx="68" cy="68" r="64"/>
    <circle id="rotate-base" class="cls-17" cx="64" cy="64" r="64"/>
    <path id="highlight" class="cls-8" d="M0,64C0,28.65,28.65,0,64,0c.04,7.57-24.68,7.26-40.53,23.47C6.77,40.55,8.82,64,0,64Z"/>
    <path id="shadow" class="cls-10" d="M128,64c0,35.35-28.65,64-64,64,0-9,23.92-7,40.36-23.64,16.44-16.65,14.64-40.36,23.64-40.36Z"/>
    <path id="rotate-screen1" class="cls-15" d="M58.82,58.82H8.82c0-13.26,5.27-25.98,14.64-35.36,9.37-9.37,22.1-14.64,35.36-14.64v50Z"/>
    <path id="highlight-2" data-name="highlight" class="cls-14" d="M8.82,58.82c0-13.26,5.27-25.98,14.64-35.36,9.37-9.37,22.1-14.64,35.36-14.64L8.82,58.82Z"/>
    <path id="shadow-2" data-name="shadow" class="cls-6" d="M58.82,58.82H8.82c0-13.26,36.74-50,50-50v50Z"/>
    <path id="rotate-screen2" class="cls-15" d="M69,69h50c0,13.26-5.27,25.98-14.64,35.36-9.37,9.37-22.1,14.64-35.36,14.64v-50Z"/>
    <path id="shadow-3" data-name="shadow" class="cls-7" d="M119,69c0,13.26-5.27,25.98-14.64,35.36-9.37,9.37-22.1,14.64-35.36,14.64l19.34-30.66,30.66-19.34Z"/>
    <path id="highlight-3" data-name="highlight" class="cls-9" d="M69,69h50c0,13.26-36.74,50-50,50v-50Z"/>
    <g id="rotate-cover">
      <path id="rotate-cover-right" class="cls-1" d="M106.43,21.57C95.18,10.33,79.91,4,64,4v60h60c0-15.91-6.33-31.18-17.57-42.43Z"/>
      <path id="rotate-cover-left" class="cls-1" d="M21.57,106.43c11.25,11.25,26.52,17.57,42.43,17.57v-60H4c0,15.91,6.33,31.18,17.57,42.43Z"/>
      <path id="shadow-4" data-name="shadow" class="cls-2" d="M85.88,42.12c-11.25-11.25-11.67-22.32-21.88-38.12v60h60c-13.23-8.55-26.87-10.63-38.12-21.88Z"/>
      <path id="shadow-5" data-name="shadow" class="cls-3" d="M41.95,85.88c11.25,11.25,11.67,22.32,21.88,38.12v-60H3.82c13.23,8.55,26.87,10.63,38.12,21.88Z"/>
      <path id="highlight-4" data-name="highlight" class="cls-4" d="M106.43,21.57C95.18,10.33,79.91,4,64,4l23.55,36.45,36.45,23.55c0-15.91-6.33-31.18-17.57-42.43Z"/>
      <path id="highlight-5" data-name="highlight" class="cls-5" d="M21.84,106.16c11.25,11.25,26.52,17.57,42.43,17.57l-23.55-36.45L4.27,63.73c0,15.91,6.33,31.18,17.57,42.43Z"/>
      <circle id="rotate-cap" class="cls-12" cx="64.12" cy="64.12" r="9.29"/>
      <circle id="rotate-cap-2" data-name="rotate-cap" class="cls-18" cx="64" cy="64" r="8"/>
      <path id="highlight-6" data-name="highlight" class="cls-13" d="M56,63.65c-.82-4.34,3.76-9.24,8-8,7.23,2.11-6.74,14.68-8,8Z"/>
      <path id="shadow-6" data-name="shadow" class="cls-11" d="M72,64c0,4.42-3.58,8-8,8-12.74,0,8-19.89,8-8Z"/>
    </g>
  </g>
</svg>